# xmcd
#
# Track frame offsets:
#	150
#	19220
#	35639
#	56576
#	70325
#	89399
#	109079
#	125085
#	150752
#	164711
#	184628
#	206324
#
# Disc length: 3035 seconds
#
# Revision: 1
# Processed by: cddbd v1.5.1PL2 Copyright (c) Steve Scherf et al.
# Submitted via: EasyCDDAExtractor 9.1.3.1
#
DISCID=a00bd90c
DTITLE=Mark Knopfler - All The Roadrunning (With Emmylou Harris)
DYEAR=2006
DGENRE=Country
TTITLE0=Beachcombing
TTITLE1=I Dug Up A Diamond
TTITLE2=This Is Us
TTITLE3=Red Staggerwing
TTITLE4=Rollin' On
TTITLE5=Love And Happiness
TTITLE6=Right Now
TTITLE7=Donkey Town
TTITLE8=Belle Star
TTITLE9=Beyond My Wildest Dreams
TTITLE10=All My Roadrunning
TTITLE11=If This Is Goodbye
EXTD=
EXTT0=
EXTT1=
EXTT2=
EXTT3=
EXTT4=
EXTT5=
EXTT6=
EXTT7=
EXTT8=
EXTT9=
EXTT10=
EXTT11=
PLAYORDER=
